<mxfile host="app.diagrams.net" agent="Mozilla/5.0 (Windows NT 10.0; Win64; x64) AppleWebKit/537.36 (KHTML, like Gecko) Chrome/130.0.0.0 Safari/537.36" version="25.0.3">
  <diagram name="Trang-1" id="_V2C8Ug86HV9Ebp5Dxmx">
    <mxGraphModel dx="1006" dy="531" grid="1" gridSize="10" guides="1" tooltips="1" connect="1" arrows="1" fold="1" page="1" pageScale="1" pageWidth="827" pageHeight="1169" math="0" shadow="0">
      <root>
        <mxCell id="0" />
        <mxCell id="1" parent="0" />
        <mxCell id="Imhbymcb47lpxVHuTxqJ-3" value="" style="edgeStyle=orthogonalEdgeStyle;rounded=0;orthogonalLoop=1;jettySize=auto;html=1;" edge="1" parent="1" source="Imhbymcb47lpxVHuTxqJ-1" target="Imhbymcb47lpxVHuTxqJ-2">
          <mxGeometry relative="1" as="geometry" />
        </mxCell>
        <mxCell id="Imhbymcb47lpxVHuTxqJ-1" value="Start&amp;nbsp;" style="ellipse;whiteSpace=wrap;html=1;" vertex="1" parent="1">
          <mxGeometry x="350" y="240" width="120" height="80" as="geometry" />
        </mxCell>
        <mxCell id="Imhbymcb47lpxVHuTxqJ-5" value="" style="edgeStyle=orthogonalEdgeStyle;rounded=0;orthogonalLoop=1;jettySize=auto;html=1;entryX=0.5;entryY=0;entryDx=0;entryDy=0;" edge="1" parent="1" source="Imhbymcb47lpxVHuTxqJ-2" target="Imhbymcb47lpxVHuTxqJ-10">
          <mxGeometry relative="1" as="geometry">
            <mxPoint x="410" y="550" as="targetPoint" />
          </mxGeometry>
        </mxCell>
        <mxCell id="Imhbymcb47lpxVHuTxqJ-2" value="Nhập n điểm&amp;nbsp;" style="whiteSpace=wrap;html=1;" vertex="1" parent="1">
          <mxGeometry x="350" y="410" width="120" height="60" as="geometry" />
        </mxCell>
        <mxCell id="Imhbymcb47lpxVHuTxqJ-9" style="edgeStyle=orthogonalEdgeStyle;rounded=0;orthogonalLoop=1;jettySize=auto;html=1;entryX=0.5;entryY=0;entryDx=0;entryDy=0;" edge="1" parent="1" source="Imhbymcb47lpxVHuTxqJ-6" target="Imhbymcb47lpxVHuTxqJ-8">
          <mxGeometry relative="1" as="geometry" />
        </mxCell>
        <mxCell id="Imhbymcb47lpxVHuTxqJ-6" value="Không Đạt" style="whiteSpace=wrap;html=1;" vertex="1" parent="1">
          <mxGeometry x="350" y="760" width="120" height="60" as="geometry" />
        </mxCell>
        <mxCell id="Imhbymcb47lpxVHuTxqJ-8" value="End;" style="ellipse;whiteSpace=wrap;html=1;" vertex="1" parent="1">
          <mxGeometry x="350" y="920" width="120" height="80" as="geometry" />
        </mxCell>
        <mxCell id="Imhbymcb47lpxVHuTxqJ-12" value="" style="edgeStyle=orthogonalEdgeStyle;rounded=0;orthogonalLoop=1;jettySize=auto;html=1;" edge="1" parent="1" source="Imhbymcb47lpxVHuTxqJ-10" target="Imhbymcb47lpxVHuTxqJ-11">
          <mxGeometry relative="1" as="geometry" />
        </mxCell>
        <mxCell id="Imhbymcb47lpxVHuTxqJ-13" style="edgeStyle=orthogonalEdgeStyle;rounded=0;orthogonalLoop=1;jettySize=auto;html=1;exitX=0.5;exitY=1;exitDx=0;exitDy=0;entryX=0.5;entryY=0;entryDx=0;entryDy=0;" edge="1" parent="1" source="Imhbymcb47lpxVHuTxqJ-10" target="Imhbymcb47lpxVHuTxqJ-6">
          <mxGeometry relative="1" as="geometry" />
        </mxCell>
        <mxCell id="Imhbymcb47lpxVHuTxqJ-10" value="n &amp;gt; 5" style="rhombus;whiteSpace=wrap;html=1;" vertex="1" parent="1">
          <mxGeometry x="370" y="530" width="80" height="80" as="geometry" />
        </mxCell>
        <mxCell id="Imhbymcb47lpxVHuTxqJ-14" style="edgeStyle=orthogonalEdgeStyle;rounded=0;orthogonalLoop=1;jettySize=auto;html=1;exitX=0.5;exitY=1;exitDx=0;exitDy=0;entryX=1;entryY=0.5;entryDx=0;entryDy=0;" edge="1" parent="1" source="Imhbymcb47lpxVHuTxqJ-11" target="Imhbymcb47lpxVHuTxqJ-8">
          <mxGeometry relative="1" as="geometry" />
        </mxCell>
        <mxCell id="Imhbymcb47lpxVHuTxqJ-11" value="Đạt" style="whiteSpace=wrap;html=1;" vertex="1" parent="1">
          <mxGeometry x="530" y="540" width="120" height="60" as="geometry" />
        </mxCell>
      </root>
    </mxGraphModel>
  </diagram>
</mxfile>
